<svg xmlns="http://www.w3.org/2000/svg" xmlns:xlink="http://www.w3.org/1999/xlink" version="1.1" x="0px" y="0px" width="100px" height="100px" viewBox="0 0 100 100" enable-background="new 0 0 100 100" xml:space="preserve">
<g id="Captions">
</g>
<g id="Your_Icon">
	<g>
		<ellipse fill="#000000" cx="54.56" cy="55.747" rx="19.13" ry="16.991"/>
		<path fill="#000000" d="M99,96c-1.589-9.964-9.091-20.116-22.458-20.116c0,0-33.895,0.185-38.48-0.018    c-4.586-0.201-5.265-2.639-5.265-2.639C28.991,67.93,19.47,54.677,19.47,54.677l12.076-15.397l0.553,0.544    c3.104,3.045,8.396,3.277,11.826,0.525c3.428-2.756,3.693-7.459,0.591-10.506l-7.612-7.473c-1.713-1.679-4.18-2.563-6.74-2.432    c-2.546,0.144-4.879,1.311-6.339,3.17L2.808,49.899c-1.795,2.285-1.997,5.273-0.525,7.735L27.593,96H99z"/>
	</g>
</g>
</svg>