<?xml version="1.0" encoding="UTF-8" standalone="no"?>
<svg
   xmlns:dc="http://purl.org/dc/elements/1.1/"
   xmlns:cc="http://creativecommons.org/ns#"
   xmlns:rdf="http://www.w3.org/1999/02/22-rdf-syntax-ns#"
   xmlns:svg="http://www.w3.org/2000/svg"
   xmlns="http://www.w3.org/2000/svg"
   xmlns:sodipodi="http://sodipodi.sourceforge.net/DTD/sodipodi-0.dtd"
   xmlns:inkscape="http://www.inkscape.org/namespaces/inkscape"
   version="1.1"
   id="Layer_1"
   x="0px"
   y="0px"
   width="827"
   height="120"
   viewBox="0 0 827 120"
   enable-background="new 0 0 1026 684"
   xml:space="preserve">
<path
   style="fill:#231f20;fill-rule:evenodd"
   clip-rule="evenodd"
   d="m 817.00339,104.76271 c 1.3391,0 2.3151,0.13618 2.943,0.39341 1.1046,0.46151 1.6645,1.36939 1.6645,2.71608 0,0.96085 -0.3481,1.67202 -1.0517,2.1184 -0.3783,0.2421 -0.8927,0.41611 -1.5661,0.52203 0.8474,0.13618 1.4602,0.47664 1.8536,1.05163 0.3934,0.57499 0.5902,1.11972 0.5902,1.67202 v 0.78683 c 0,0.24967 0.01,0.51446 0.03,0.80196 0.015,0.27993 0.045,0.47664 0.091,0.55986 l 0.068,0.13618 h -1.7704 c -0.01,-0.0378 -0.015,-0.0757 -0.03,-0.11348 -0.01,-0.0378 -0.015,-0.0757 -0.023,-0.12105 l -0.045,-0.34802 v -0.85493 c 0,-1.24077 -0.3329,-2.05786 -1.0138,-2.46641 -0.401,-0.22697 -1.1046,-0.34802 -2.1033,-0.34802 h -1.4904 v 4.25191 h -1.899 v -10.7584 h 3.7526 z m 2.0276,1.70228 c -0.4767,-0.27237 -1.2332,-0.40855 -2.2849,-0.40855 h -1.6115 v 3.90389 h 1.7099 c 0.7944,0 1.3996,-0.0832 1.8006,-0.2421 0.7339,-0.29506 1.1046,-0.84735 1.1046,-1.67958 0,-0.78683 -0.2345,-1.30886 -0.7187,-1.57366 z m 5.0992,10.65248 c -1.9141,1.92169 -4.2292,2.88253 -6.9377,2.88253 -2.7161,0 -5.0236,-0.96084 -6.9302,-2.88253 -1.8914,-1.90655 -2.8371,-4.22922 -2.8371,-6.9453 0,-2.69338 0.9533,-5.00092 2.8674,-6.91503 1.9066,-1.89899 4.2065,-2.85227 6.8999,-2.85227 2.7085,0 5.0236,0.95328 6.9377,2.85227 1.9066,1.90655 2.8674,4.21408 2.8674,6.91503 0,2.71608 -0.9608,5.02362 -2.8674,6.9453 z m -12.8919,-12.91462 c -1.6342,1.64932 -2.4513,3.63153 -2.4513,5.96932 0,2.34537 0.8096,4.34271 2.4362,5.99959 1.6417,1.65689 3.6239,2.48155 5.9693,2.48155 2.3378,0 4.32,-0.82466 5.9618,-2.48155 1.6342,-1.65688 2.4512,-3.65422 2.4512,-5.99959 0,-2.33779 -0.817,-4.32 -2.4512,-5.96932 -1.6494,-1.65689 -3.6316,-2.48155 -5.9618,-2.48155 -2.3302,0 -4.3049,0.82466 -5.9542,2.48155 z"
   id="path3" /><path
   style="fill:#231f20;fill-rule:evenodd"
   clip-rule="evenodd"
   d="m 296.76409,37.337308 h 28.2276 v -24.33881 h -46.4458 c -8.1104,0 -14.6774,6.56702 -14.6774,14.67743 v 91.037902 h 27.6828 V 42.345798 c 0,-2.76904 2.247,-5.01605 5.0161,-5.01605 h 0.1967 z M 69.50599,118.66087 H 85.1367 l 0.0151,-75.505552 c 0,-3.3062 2.65555,-5.97689 5.95419,-5.97689 h 14.58665 c 3.3062,0 6.00715,2.67826 6.00715,5.97689 l 0.10592,75.505552 h 27.68285 V 27.615408 c 0,-8.10285 -6.56702,-14.66987 -14.67743,-14.66987 h -40.1284 c -8.11042,0 -14.9271,6.56702 -14.9271,14.66987 0,-8.10285 -6.83182,-14.66987 -14.9498,-14.66987 H 14.66987 C 6.56702,12.945538 0,19.512558 0,27.615408 v 91.045462 h 27.68285 l 0.0983,-75.505552 c 0,-3.3062 2.70852,-5.97689 6.01472,-5.97689 h 14.57908 c 3.31377,0 5.96176,2.67826 5.96176,5.97689 l 0.0151,75.505552 h 15.15407 z m 158.7281,-63.476102 h -51.1213 c -17.51461,0 -31.72297,14.200789 -31.72297,31.722918 0,17.514564 14.20836,31.722924 31.72297,31.722924 h 51.0154 l 27.6828,0.0908 V 27.683508 c 0,-8.11042 -6.5746,-14.67743 -14.6774,-14.67743 h -90.67476 v 24.33881 h 72.45656 c 2.9733,0 5.2128,2.24701 5.2128,5.01605 l 0.1059,12.82384 z m -0.083,40.317537 h -49.8276 c -4.8269,0 -8.7308,-3.911459 -8.7308,-8.730801 0,-4.819343 3.9114,-8.730802 8.7308,-8.730802 h 49.7897 l 0.038,17.461603 z m 132.3163,-58.051507 -0.061,51.915736 c 0,2.769041 2.247,5.01605 5.0161,5.01605 h 28.8101 V 118.7214 h -46.824 c -8.1029,0 -14.6774,-6.56702 -14.6774,-14.66987 V 6.4849854e-4 h 27.6828 L 360.48199,13.006068 h 33.5765 v 24.33881 l -33.5916,0.10592 z m 120.9677,17.73397 h -51.1213 c -17.5222,0 -31.7305,14.200789 -31.7305,31.722918 0,17.514564 14.2083,31.722924 31.7305,31.722924 h 51.0078 l 27.6829,0.0908 V 27.683508 c 0,-8.11042 -6.5746,-14.67743 -14.6775,-14.67743 h -90.6747 v 24.33881 h 72.4566 c 2.9733,0 5.2127,2.24701 5.2127,5.01605 l 0.1135,12.82384 z m -0.083,40.317537 h -49.8352 c -4.8269,0 -8.7308,-3.911459 -8.7308,-8.730801 0,-4.819343 3.9115,-8.730802 8.7308,-8.730802 h 49.7974 l 0.038,17.461603 z"
   id="path5" /><polygon
   style="fill:#fdbf43;fill-rule:evenodd"
   clip-rule="evenodd"
   points="857.29,284.169 871.225,298.132 878.896,298.132 864.99,284.169 "
   id="polygon7"
   transform="matrix(7.5656862,0,0,7.5656862,-5905.5779,-2136.7988)" /><polygon
   style="fill:none;stroke:#fdbf43;stroke-width:0.2498;stroke-miterlimit:3.86360002"
   stroke-miterlimit="3.8636"
   points="857.29,284.169 871.225,298.132 878.896,298.132 864.99,284.169 "
   id="polygon9"
   transform="matrix(7.5656862,0,0,7.5656862,-5905.5779,-2136.7988)" /><polygon
   style="fill:#00bbe5;fill-rule:evenodd"
   clip-rule="evenodd"
   points="849.702,284.169 863.665,298.132 871.281,298.132 857.318,284.169 "
   id="polygon11"
   transform="matrix(7.5656862,0,0,7.5656862,-5905.5779,-2136.7988)" /><polygon
   style="fill:#f79044;fill-rule:evenodd"
   clip-rule="evenodd"
   points="864.934,284.169 878.896,298.132 886.513,298.132 872.55,284.169 "
   id="polygon13"
   transform="matrix(7.5656862,0,0,7.5656862,-5905.5779,-2136.7988)" /><polygon
   style="fill:none;stroke:#f79044;stroke-width:0.2498;stroke-miterlimit:3.86360002"
   stroke-miterlimit="3.8636"
   points="864.934,284.169 878.896,298.132 886.513,298.132 872.55,284.169 "
   id="polygon15"
   transform="matrix(7.5656862,0,0,7.5656862,-5905.5779,-2136.7988)" /><path
   style="fill:#231f20;fill-rule:evenodd"
   clip-rule="evenodd"
   d="m 46.33229,212.80827 h 2.64043 L 39.69719,168.20855 23.77898,207.47446 7.9213,168.20855 -1.35423,212.80827 H 1.27863 L 8.67031,177.0831 23.77898,214.23819 38.8347,177.0831 46.33229,212.80827 z M 84.47092,172.2108 v -2.57233 h -20.6165 v 43.16224 h 20.6165 v -2.5799 H 66.60833 v -19.74644 h 17.40865 v -2.5799 H 66.60833 V 172.2108 h 17.86259 z m 27.7585,0 h 11.16695 v -2.57233 H 98.32369 v 2.57233 h 11.16695 v 40.58991 h 2.74634 V 172.2108 z m 33.08474,20.15499 c 7.15714,0.11348 12.3699,-3.78284 12.3699,-11.28044 0,-3.66179 -1.2559,-7.09661 -4.35027,-9.27553 -2.92035,-2.11839 -6.35517,-2.17135 -9.85052,-2.17135 h -5.3792 v 43.16224 h 2.74634 v -20.43492 h 1.37695 l 14.07975,20.43492 h 3.14732 l -14.14027,-20.43492 z m -4.46375,-2.57233 v -17.57509 h 1.77037 c 2.51937,0 5.43973,-0.11349 7.72457,0.97597 3.09436,1.37695 4.57724,4.57724 4.57724,7.78509 0,2.57233 -0.97598,5.15223 -3.02628,6.80912 -2.17892,1.89142 -4.8723,2.00491 -7.55812,2.00491 h -3.48778 z m 54.73018,-20.72999 c -12.1959,0 -22.3869,10.01697 -22.3869,22.1599 0,12.14293 10.244,22.15989 22.3869,22.15989 12.1354,0 22.3793,-10.01696 22.3793,-22.15989 0,-12.14293 -10.2515,-22.1599 -22.3793,-22.1599 z m 0,2.5799 c 10.7054,0 19.6329,8.92751 19.6329,19.58 0,10.58439 -8.9275,19.58 -19.6329,19.58 -10.766,0 -19.6405,-8.93508 -19.6405,-19.58 0,-10.65249 8.8745,-19.58 19.6405,-19.58 z m 41.5432,20.66946 h 4.8723 c 3.3743,0 6.9831,-0.46151 9.616,-2.74635 2.3983,-2.0049 3.6088,-5.43972 3.6088,-8.52652 0,-3.38187 -1.2559,-6.64268 -3.8963,-8.88212 -2.6858,-2.2924 -5.9542,-2.51181 -9.3285,-2.51181 h -7.6187 v 43.16224 h 2.7464 v -20.49544 z m 0,-2.5799 v -17.51456 h 4.5243 c 2.6404,0 5.3867,0.0605 7.5581,1.72497 2.1789,1.60393 3.2684,4.28975 3.2684,6.98313 0,2.51937 -0.9155,4.75125 -2.8069,6.46866 -2.2319,2.00491 -4.7513,2.34537 -7.5506,2.34537 h -4.9933 z m 53.8071,-20.66946 c -12.1883,0 -22.3793,10.01697 -22.3793,22.1599 0,12.14293 10.244,22.15989 22.3793,22.15989 12.1354,0 22.3869,-10.01696 22.3869,-22.15989 0,-12.14293 -10.2439,-22.1599 -22.3869,-22.1599 z m 0,2.5799 c 10.7055,0 19.6406,8.92751 19.6406,19.58 0,10.58439 -8.9351,19.58 -19.6406,19.58 -10.7584,0 -19.6329,-8.93508 -19.6329,-19.58 0.01,-10.65249 8.8745,-19.58 19.6329,-19.58 z m 41.5584,-2.0049 h -2.7464 v 43.16224 h 13.7393 v -2.5799 h -10.9929 v -40.58234 z m 28.4394,0 h -2.7464 v 43.16224 h 2.7464 v -43.16224 z m 28.621,2.57233 h 11.1745 v -2.57233 h -25.0727 v 2.57233 h 11.1669 v 40.58991 h 2.7388 V 172.2108 z m 44.4862,26.39668 5.7802,14.20079 h 2.8068 l -18.0366,-44.59972 -18.0895,44.59972 h 2.7993 l 5.7877,-14.20079 h 18.9521 z m -1.0289,-2.57233 h -16.8867 l 8.4736,-20.84347 8.4131,20.84347 z m 63.2567,-26.39668 h -2.7464 v 37.66955 l -36.2396,-38.24455 v 43.73724 h 2.7463 v -37.09456 l 36.2397,38.53204 v -44.59972 z m 69.6497,28.96901 5.7877,14.20079 h 2.7993 l -18.0366,-44.59972 -18.0895,44.59972 h 2.8068 l 5.7802,-14.20079 h 18.9521 z m -1.029,-2.57233 h -16.8866 l 8.466,-20.84347 8.4206,20.84347 z m 29.3019,-23.82435 h 11.167 v -2.57233 h -25.0727 v 2.57233 h 11.167 v 40.58991 h 2.7463 V 172.2108 z m 28.6286,-2.57233 h -2.7464 v 43.16224 h 13.7318 v -2.5799 h -10.9854 v -40.58234 z m 48.8743,28.96901 5.7878,14.20079 h 2.7993 l -18.0366,-44.59972 -18.0896,44.59972 h 2.8069 l 5.7802,-14.20079 h 18.952 z m -1.0213,-2.57233 h -16.8867 l 8.4661,-20.84347 8.4206,20.84347 z m 63.2491,-26.39668 h -2.7463 v 37.66955 l -36.2397,-38.24455 v 43.73724 h 2.7464 v -37.09456 l 36.2396,38.53204 v -44.59972 z m 28.6134,2.57233 h 11.167 v -2.57233 h -25.0727 v 2.57233 h 11.1669 v 40.58991 h 2.7464 V 172.2108 z m 44.4787,26.39668 5.7877,14.20079 h 2.8069 l -18.0366,-44.59972 -18.0971,44.59972 h 2.8069 l 5.7877,-14.20079 h 18.9445 z m -1.0289,-2.57233 h -16.8867 l 8.4736,-20.84347 8.4131,20.84347 z m 58.9442,-3.66936 c 7.1572,0.11348 12.3699,-3.78284 12.3699,-11.28044 0,-3.66179 -1.2559,-7.09661 -4.3503,-9.27553 -2.9203,-2.11839 -6.3551,-2.17135 -9.8505,-2.17135 h -5.3792 v 43.16224 h 2.7464 v -20.43492 h 1.3769 l 14.0798,20.43492 h 3.1473 l -14.1403,-20.43492 z m -4.4562,-2.57233 v -17.57509 h 1.7704 c 2.5194,0 5.4397,-0.11349 7.7246,0.97597 3.0943,1.37695 4.5772,4.57724 4.5772,7.78509 0,2.57233 -0.976,5.15223 -3.0338,6.80912 -2.1714,1.89142 -4.8648,2.00491 -7.5506,2.00491 h -3.4878 z m 58.0969,8.81402 5.7802,14.20079 h 2.8069 l -18.0366,-44.59972 -18.0971,44.59972 h 2.8068 l 5.7878,-14.20079 h 18.952 z m -1.0289,-2.57233 h -16.8866 l 8.4736,-20.84347 8.413,20.84347 z m 27.0095,-3.72232 h 4.8723 c 3.3743,0 6.9831,-0.46151 9.616,-2.74635 2.3983,-2.0049 3.6088,-5.43972 3.6088,-8.52652 0,-3.38187 -1.2559,-6.64268 -3.8963,-8.88212 -2.6858,-2.2924 -5.9542,-2.51181 -9.3285,-2.51181 h -7.6186 v 43.16224 h 2.7463 v -20.49544 z m 0,-2.5799 v -17.51456 h 4.5318 c 2.6329,0 5.3792,0.0605 7.5506,1.72497 2.1789,1.60393 3.2684,4.28975 3.2684,6.98313 0,2.51937 -0.9155,4.75125 -2.8069,6.46866 -2.2319,2.00491 -4.7512,2.34537 -7.5505,2.34537 h -4.9934 z m 36.7465,-20.09446 h -2.7463 v 43.16224 h 2.7463 v -43.16224 z m 19.01261,43.1698 h 7.7851 c 6.4081,0 11.5074,-1.14242 16.2511,-5.72722 4.3503,-4.18383 6.6427,-9.85053 6.6427,-15.80472 0,-6.1736 -2.353,-11.96135 -6.8697,-16.19814 -4.7512,-4.41079 -9.7295,-5.43972 -16.0241,-5.43972 h -7.7851 v 43.1698 z m 2.7464,-2.5799 v -38.01 h 4.9782 c 5.3792,0 9.8505,0.97597 13.9738,4.69829 4.0628,3.71475 6.2341,8.87455 6.2341,14.35967 0,5.1598 -2.0578,10.07749 -5.7272,13.73929 -4.1233,4.06277 -8.814,5.20519 -14.4807,5.20519 h -4.9782 z m 81.3916,-38.01757 h 11.167 v -2.57233 h -25.0727 v 2.57233 h 11.1669 v 40.58991 h 2.7464 V 172.2108 z m 33.0847,20.15499 c 7.1572,0.11348 12.3699,-3.78284 12.3699,-11.28044 0,-3.66179 -1.2559,-7.09661 -4.3502,-9.27553 -2.9204,-2.11839 -6.3552,-2.17135 -9.8505,-2.17135 h -5.3793 v 43.16224 h 2.7464 v -20.43492 h 1.3769 l 14.0798,20.43492 h 3.1473 l -14.1403,-20.43492 z m -4.4637,-2.57233 v -17.57509 h 1.7704 c 2.5193,0 5.4397,-0.11349 7.7245,0.97597 3.0944,1.37695 4.5773,4.57724 4.5773,7.78509 0,2.57233 -0.976,5.15223 -3.0339,6.80912 -2.1713,1.89142 -4.8647,2.00491 -7.5505,2.00491 h -3.4878 z m 58.1045,8.81402 5.7801,14.20079 h 2.8069 l -18.0366,-44.59972 -18.0971,44.59972 h 2.8069 l 5.7877,-14.20079 h 18.9521 z m -1.0365,-2.57233 h -16.8866 l 8.4735,-20.84347 8.4131,20.84347 z m 63.2567,-26.39668 h -2.7464 v 37.66955 l -36.2396,-38.24455 v 43.73724 h 2.7463 v -37.09456 l 36.2397,38.53204 v -44.59972 z m 40.9303,5.49268 c -2.0578,-3.71475 -6.1811,-6.06768 -10.539,-6.06768 -6.4686,0 -11.0459,4.52428 -11.0459,10.93242 0,3.43482 1.5964,5.9542 4.4638,7.72457 l 7.7851,4.1233 c 3.7147,1.83089 8.7005,3.89632 8.7005,8.76106 0,5.71966 -4.9858,10.19098 -10.6525,10.19098 -5.2052,0 -8.587,-3.20785 -10.4179,-7.78509 l -2.3983,1.08946 c 2.0049,5.55321 6.6956,9.28309 12.7103,9.28309 6.9831,0 13.5123,-5.38676 13.5123,-12.53634 0,-3.89633 -1.6644,-6.52918 -4.9252,-8.59462 l -8.2466,-4.28974 c -3.4878,-1.66445 -7.7851,-3.54831 -7.7851,-8.06502 0,-4.53185 3.4953,-8.2466 8.1331,-8.2466 4.0628,0 6.8091,2.00491 8.7535,5.09171 l 1.9519,-1.6115 z m 21.6984,-5.49268 h -2.7463 v 43.16224 h 2.7463 v -43.16224 z m 28.621,2.57233 h 11.167 v -2.57233 h -25.0727 v 2.57233 h 11.1669 v 40.58991 h 2.7464 V 172.2108 z m 76.5194,26.39668 5.7877,14.20079 h 2.8069 l -18.0366,-44.59972 -18.0971,44.59972 h 2.8068 l 5.7878,-14.20079 h 18.9445 z m -1.0214,-2.57233 h -16.8866 l 8.4735,-20.84347 8.4131,20.84347 z m 50.4253,-0.2875 c 0,3.89633 0,8.01963 -2.2319,10.87946 -2.1108,2.74634 -6.3552,4.18382 -9.6689,4.18382 -3.3214,0 -7.5582,-1.42991 -9.6765,-4.18382 -2.2319,-2.85983 -2.2319,-6.98313 -2.2319,-10.87946 v -26.10162 h -2.7464 v 26.90358 c 0,4.4108 0,8.18608 2.9204,11.80247 2.9203,3.31377 7.3917,5.03875 11.7419,5.03875 4.3503,0 8.8141,-1.72498 11.7344,-5.03875 2.9204,-3.61639 2.9204,-7.39167 2.9204,-11.80247 v -26.90358 h -2.7464 v 26.10162 z m 30.9663,-23.53685 h 11.167 v -2.57233 h -25.0727 v 2.57233 h 11.167 v 40.58991 h 2.7463 V 172.2108 z m 28.6286,15.74419 v -18.31652 h -2.7463 v 43.16224 h 2.7463 v -22.26582 h 26.2227 v 22.26582 h 2.7387 v -43.16224 h -2.7387 v 18.31652 h -26.2227 z m 67.7734,-18.89152 c -12.1883,0 -22.3793,10.01697 -22.3793,22.1599 0,12.14293 10.244,22.15989 22.3793,22.15989 12.1354,0 22.3869,-10.01696 22.3869,-22.15989 0,-12.14293 -10.2515,-22.1599 -22.3869,-22.1599 z m 0,2.5799 c 10.7055,0 19.6405,8.92751 19.6405,19.58 0,10.58439 -8.935,19.58 -19.6405,19.58 -10.7584,0 -19.6329,-8.93508 -19.6329,-19.58 0,-10.65249 8.8745,-19.58 19.6329,-19.58 z m 46.0221,20.72242 c 7.1496,0.11348 12.3623,-3.78284 12.3623,-11.28044 0,-3.66179 -1.2559,-7.09661 -4.3503,-9.27553 -2.9203,-2.11839 -6.3551,-2.17135 -9.8429,-2.17135 h -5.3868 v 43.16224 h 2.7464 v -20.43492 h 1.3769 l 14.0798,20.43492 h 3.1549 l -14.1403,-20.43492 z m -4.4713,-2.57233 v -17.57509 h 1.7703 c 2.5194,0 5.4473,-0.11349 7.7322,0.97597 3.0868,1.37695 4.5696,4.57724 4.5696,7.78509 0,2.57233 -0.9684,5.15223 -3.0262,6.80912 -2.179,1.89142 -4.8723,2.00491 -7.5582,2.00491 h -3.4877 z m 37.662,-20.15499 h -2.7464 v 43.16224 h 2.7464 v -43.16224 z m 28.6285,2.57233 h 11.167 v -2.57233 h -25.0727 v 2.57233 h 11.1669 v 40.58991 h 2.7464 V 172.2108 z m 35.8311,22.1599 v 18.43757 h 2.7463 V 194.3707 l 14.3673,-24.73223 h -3.0339 l -12.7103,21.8724 -12.7104,-21.8724 h -3.0338 l 14.3748,24.73223 z"
   id="path17" /></svg>