<svg xmlns="http://www.w3.org/2000/svg" width="100" height="100" viewBox="0 0 100 100"><g><ellipse cx="54.56" cy="55.747" rx="19.13" ry="16.991"/><path d="M99 96c-1.59-9.964-9.09-20.116-22.458-20.116 0 0-33.895.185-38.48-.018-4.586-.2-5.265-2.64-5.265-2.64L19.47 54.677 31.546 39.28l.553.544c3.103 3.045 8.395 3.277 11.825.525 3.428-2.757 3.693-7.46.59-10.507l-7.61-7.473c-1.714-1.68-4.18-2.563-6.74-2.432-2.547.144-4.88 1.31-6.34 3.17L2.808 49.898c-1.795 2.286-1.997 5.274-.525 7.736L27.593 96H99z"/></g></svg>