<svg xmlns="http://www.w3.org/2000/svg" width="20" height="20"><path d="M10 .494c-5.522 0-10 4.477-10 10 0 4.418 2.865 8.166 6.84 9.49.5.09.682-.218.682-.483 0-.237-.01-.866-.014-1.7-2.782.604-3.368-1.34-3.368-1.34-.455-1.156-1.11-1.463-1.11-1.463-.908-.62.068-.608.068-.608 1.004.07 1.532 1.03 1.532 1.03.892 1.527 2.34 1.086 2.91.83.09-.646.35-1.087.635-1.337-2.22-.252-4.555-1.11-4.555-4.942 0-1.09.39-1.983 1.03-2.682-.104-.253-.447-1.27.097-2.647 0 0 .84-.267 2.75 1.027.798-.223 1.653-.333 2.504-.337.85.004 1.705.114 2.504.337 1.91-1.294 2.748-1.026 2.748-1.026.545 1.378.202 2.395.1 2.648.64.7 1.027 1.59 1.027 2.683 0 3.843-2.34 4.688-4.567 4.936.36.308.68.92.68 1.852 0 1.336-.013 2.415-.013 2.743 0 .268.18.58.687.482 3.97-1.325 6.833-5.07 6.833-9.488 0-5.523-4.477-10-10-10" fill="#777" fill-rule="evenodd"/></svg>