<svg xmlns="http://www.w3.org/2000/svg" width="827" height="120" viewBox="0 0 827 120" enable-background="new 0 0 1026 684"><path clip-rule="evenodd" d="M817.003 104.763c1.34 0 2.315.136 2.943.393 1.105.462 1.665 1.37 1.665 2.716 0 .96-.347 1.672-1.05 2.12-.38.24-.894.415-1.567.52.847.137 1.46.477 1.854 1.052.393.575.59 1.12.59 1.672v.787c0 .25.01.515.03.802.015.28.045.477.09.56l.07.136h-1.772c-.01-.037-.015-.075-.03-.112-.01-.038-.015-.076-.023-.12l-.045-.35v-.854c0-1.24-.332-2.058-1.013-2.467-.4-.227-1.105-.348-2.104-.348h-1.49v4.25h-1.9v-10.757h3.754zm2.028 1.702c-.476-.272-1.232-.41-2.284-.41h-1.61v3.905h1.708c.795 0 1.4-.083 1.8-.242.735-.295 1.106-.847 1.106-1.68 0-.786-.235-1.308-.72-1.573zm5.1 10.652c-1.914 1.922-4.23 2.883-6.938 2.883-2.716 0-5.023-.96-6.93-2.883-1.89-1.906-2.837-4.23-2.837-6.945 0-2.693.953-5 2.868-6.915 1.906-1.9 4.206-2.852 6.9-2.852 2.708 0 5.023.953 6.937 2.852 1.907 1.907 2.868 4.214 2.868 6.915 0 2.716-.96 5.024-2.868 6.945zm-12.892-12.914c-1.634 1.65-2.45 3.63-2.45 5.97 0 2.345.81 4.342 2.435 6 1.642 1.656 3.624 2.48 5.97 2.48 2.337 0 4.32-.824 5.96-2.48 1.635-1.658 2.452-3.655 2.452-6 0-2.34-.817-4.32-2.45-5.97-1.65-1.657-3.632-2.482-5.963-2.482-2.33 0-4.304.826-5.954 2.483z" fill="#231f20" fill-rule="evenodd"/><path clip-rule="evenodd" d="M296.764 37.337h28.228v-24.34h-46.446c-8.11 0-14.678 6.57-14.678 14.68v91.037h27.683V42.346c0-2.77 2.248-5.016 5.017-5.016h.197zM69.506 118.66h15.63l.016-75.505c0-3.306 2.655-5.977 5.954-5.977h14.587c3.306 0 6.007 2.68 6.007 5.977l.106 75.506h27.683V27.616c0-8.102-6.568-14.67-14.68-14.67H84.684c-8.11 0-14.927 6.568-14.927 14.67 0-8.102-6.832-14.67-14.95-14.67H14.67C6.567 12.946 0 19.514 0 27.616v91.046h27.683l.098-75.505c0-3.306 2.71-5.977 6.016-5.977h14.58c3.313 0 5.96 2.68 5.96 5.977l.016 75.506h15.154zm158.728-63.475h-51.12c-17.516 0-31.724 14.2-31.724 31.723 0 17.514 14.208 31.723 31.723 31.723h51.015l27.683.09V27.685c0-8.11-6.574-14.678-14.676-14.678H150.46v24.34h72.455c2.974 0 5.213 2.246 5.213 5.015l.106 12.825zm-.083 40.317h-49.827c-4.826 0-8.73-3.91-8.73-8.73s3.91-8.73 8.73-8.73h49.79l.038 17.46zm132.317-58.05l-.06 51.915c0 2.77 2.246 5.016 5.015 5.016h28.81v24.338H347.41c-8.104 0-14.68-6.566-14.68-14.668V.002h27.684l.068 13.004h33.576v24.34l-33.59.105zm120.968 17.733h-51.12c-17.523 0-31.732 14.2-31.732 31.723 0 17.514 14.21 31.723 31.73 31.723h51.01l27.68.09V27.685c0-8.11-6.573-14.678-14.676-14.678h-90.675v24.34h72.457c2.972 0 5.212 2.246 5.212 5.015l.113 12.825zm-.083 40.317h-49.835c-4.827 0-8.73-3.91-8.73-8.73s3.91-8.73 8.73-8.73h49.797l.038 17.46z" fill="#231f20" fill-rule="evenodd"/><path clip-rule="evenodd" fill="#fdbf43" fill-rule="evenodd" d="M580.41 13.135l105.427 105.64h58.036L638.665 13.134z"/><path stroke-miterlimit="3.864" stroke="#fdbf43" stroke-width="1.8915" fill="none" d="M580.41 13.135l105.427 105.64h58.036L638.665 13.134z"/><path clip-rule="evenodd" fill="#00bbe5" fill-rule="evenodd" d="M523 13.135l105.64 105.64h57.62L580.62 13.134z"/><path clip-rule="evenodd" fill="#f79044" fill-rule="evenodd" d="M638.24 13.135l105.633 105.64H801.5L695.863 13.134z"/><path stroke-miterlimit="3.864" stroke="#f79044" stroke-width="1.8915" fill="none" d="M638.24 13.135l105.633 105.64H801.5L695.863 13.134z"/><path clip-rule="evenodd" d="M46.332 212.808h2.64l-9.275-44.6-15.918 39.266L7.92 168.21l-9.274 44.598H1.28l7.39-35.725 15.11 37.155 15.055-37.155 7.497 35.725zm38.14-40.597v-2.572H63.853V212.8H84.47v-2.58H66.61v-19.746h17.41v-2.58h-17.41V172.21H84.47zm27.757 0h11.166v-2.572H98.324v2.573h11.167v40.59h2.747v-40.59zm33.084 20.156c7.157.113 12.37-3.783 12.37-11.28 0-3.662-1.256-7.097-4.35-9.276-2.92-2.12-6.355-2.172-9.85-2.172h-5.38V212.8h2.746v-20.434h1.377l14.08 20.435h3.147l-14.14-20.434zm-4.464-2.573v-17.575h1.77c2.52 0 5.44-.113 7.725.976 3.095 1.377 4.578 4.578 4.578 7.785 0 2.572-.976 5.152-3.027 6.81-2.18 1.89-4.872 2.003-7.558 2.003h-3.488zm54.73-20.73c-12.195 0-22.386 10.017-22.386 22.16s10.244 22.16 22.387 22.16c12.136 0 22.38-10.017 22.38-22.16s-10.252-22.16-22.38-22.16zm0 2.58c10.706 0 19.633 8.928 19.633 19.58 0 10.585-8.927 19.58-19.632 19.58-10.765 0-19.64-8.935-19.64-19.58 0-10.652 8.875-19.58 19.64-19.58zm41.544 20.67h4.872c3.374 0 6.983-.462 9.616-2.747 2.398-2.004 3.61-5.44 3.61-8.526 0-3.382-1.257-6.643-3.897-8.882-2.686-2.293-5.955-2.512-9.33-2.512h-7.618v43.162h2.747v-20.495zm0-2.58v-17.515h4.524c2.64 0 5.387.06 7.558 1.725 2.18 1.604 3.27 4.29 3.27 6.983 0 2.52-.917 4.752-2.808 6.47-2.232 2.004-4.752 2.345-7.55 2.345h-4.994zm53.807-20.67c-12.187 0-22.378 10.017-22.378 22.16s10.244 22.16 22.38 22.16c12.134 0 22.386-10.017 22.386-22.16s-10.244-22.16-22.387-22.16zm0 2.58c10.706 0 19.64 8.928 19.64 19.58 0 10.585-8.934 19.58-19.64 19.58-10.758 0-19.632-8.935-19.632-19.58.01-10.652 8.874-19.58 19.633-19.58zm41.56-2.005h-2.747V212.8h13.74v-2.58h-10.994V169.64zm28.44 0h-2.748V212.8h2.747V169.64zm28.62 2.573h11.174v-2.572H375.65v2.573h11.168v40.59h2.74v-40.59zm44.486 26.397l5.78 14.2h2.807l-18.037-44.598-18.09 44.598h2.8l5.788-14.2h18.952zm-1.03-2.572H416.12l8.474-20.843 8.413 20.843zm63.258-26.397h-2.747v37.67l-36.24-38.245V212.8h2.747v-37.094l36.24 38.532v-44.6zm69.65 28.97l5.787 14.2h2.8l-18.036-44.6-18.09 44.6h2.807l5.78-14.2h18.953zm-1.03-2.573h-16.886l8.466-20.843 8.42 20.843zm29.302-23.824h11.167v-2.572H580.28v2.573h11.168v40.59h2.746v-40.59zm28.63-2.572h-2.748V212.8H633.8v-2.58h-10.985V169.64zm48.873 28.97l5.787 14.2h2.8l-18.037-44.6-18.09 44.6h2.807l5.78-14.2h18.952zm-1.022-2.573H653.78l8.467-20.843 8.42 20.843zm63.25-26.397h-2.747v37.67l-36.24-38.245V212.8h2.747v-37.094l36.24 38.532v-44.6zm28.612 2.573h11.167v-2.572h-25.072v2.573h11.167v40.59h2.746v-40.59zm44.48 26.397l5.787 14.2h2.807l-18.037-44.598-18.097 44.598h2.807l5.788-14.2h18.944zm-1.03-2.572h-16.887l8.474-20.843 8.413 20.843zm58.944-3.67c7.158.114 12.37-3.782 12.37-11.28 0-3.66-1.256-7.096-4.35-9.275-2.92-2.12-6.355-2.172-9.85-2.172h-5.38V212.8h2.747v-20.434h1.378l14.08 20.435h3.147l-14.14-20.434zm-4.456-2.572v-17.575h1.77c2.52 0 5.44-.113 7.725.976 3.094 1.377 4.577 4.578 4.577 7.785 0 2.572-.976 5.152-3.033 6.81-2.172 1.89-4.865 2.003-7.55 2.003h-3.49zm58.097 8.814l5.78 14.2h2.807l-18.036-44.598-18.098 44.598h2.807l5.788-14.2h18.952zm-1.03-2.572H900.65l8.473-20.843 8.413 20.843zm27.01-3.722h4.873c3.374 0 6.983-.462 9.616-2.747 2.398-2.004 3.61-5.44 3.61-8.526 0-3.382-1.257-6.643-3.898-8.882-2.685-2.293-5.954-2.512-9.328-2.512h-7.62v43.162h2.748v-20.495zm0-2.58v-17.515h4.532c2.633 0 5.38.06 7.55 1.725 2.18 1.604 3.27 4.29 3.27 6.983 0 2.52-.916 4.752-2.807 6.47-2.232 2.004-4.752 2.345-7.55 2.345h-4.994zm36.747-20.095h-2.746V212.8h2.746V169.64zm19.013 43.17h7.785c6.408 0 11.507-1.142 16.25-5.727 4.35-4.183 6.644-9.85 6.644-15.804 0-6.173-2.353-11.96-6.87-16.198-4.75-4.41-9.73-5.44-16.024-5.44h-7.785v43.17zm2.746-2.58v-38.01h4.98c5.38 0 9.85.976 13.973 4.7 4.063 3.713 6.234 8.873 6.234 14.358 0 5.16-2.058 10.078-5.727 13.74-4.123 4.062-8.814 5.205-14.48 5.205h-4.98zm81.393-38.017h11.167v-2.572h-25.073v2.573h11.167v40.59h2.746v-40.59zm33.084 20.156c7.158.113 12.37-3.783 12.37-11.28 0-3.662-1.256-7.097-4.35-9.276-2.92-2.12-6.355-2.172-9.85-2.172h-5.38V212.8h2.747v-20.434h1.377l14.08 20.435h3.148l-14.14-20.434zm-4.463-2.573v-17.575h1.77c2.52 0 5.44-.113 7.725.976 3.093 1.377 4.576 4.578 4.576 7.785 0 2.572-.976 5.152-3.034 6.81-2.17 1.89-4.865 2.003-7.55 2.003h-3.488zm58.104 8.814l5.78 14.2h2.807l-18.036-44.598-18.098 44.598h2.806l5.788-14.2h18.952zm-1.036-2.572h-16.887l8.474-20.843 8.412 20.843zm63.256-26.397h-2.746v37.67l-36.24-38.245V212.8h2.747v-37.094l36.238 38.532v-44.6zm40.93 5.493c-2.057-3.714-6.18-6.067-10.538-6.067-6.47 0-11.046 4.525-11.046 10.933 0 3.435 1.596 5.954 4.464 7.724l7.785 4.124c3.714 1.83 8.7 3.896 8.7 8.76 0 5.72-4.986 10.192-10.652 10.192-5.204 0-8.586-3.208-10.417-7.785l-2.398 1.09c2.004 5.553 6.695 9.283 12.71 9.283 6.983 0 13.512-5.387 13.512-12.536 0-3.896-1.664-6.53-4.925-8.595l-8.247-4.29c-3.487-1.664-7.785-3.548-7.785-8.064 0-4.532 3.496-8.247 8.133-8.247 4.063 0 6.81 2.006 8.754 5.093l1.952-1.612zm21.7-5.492h-2.747V212.8h2.747V169.64zm28.62 2.573h11.167v-2.572h-25.073v2.573h11.167v40.59h2.746v-40.59zm76.52 26.397l5.787 14.2h2.807l-18.036-44.598-18.098 44.598h2.807l5.788-14.2h18.945zm-1.022-2.572h-16.886l8.473-20.843 8.413 20.843zm50.425-.287c0 3.896 0 8.02-2.23 10.88-2.11 2.745-6.356 4.183-9.67 4.183-3.32 0-7.558-1.43-9.676-4.183-2.232-2.86-2.232-6.983-2.232-10.88v-26.1h-2.746v26.903c0 4.41 0 8.186 2.92 11.802 2.92 3.314 7.392 5.04 11.742 5.04 4.35 0 8.814-1.726 11.735-5.04 2.92-3.616 2.92-7.392 2.92-11.802v-26.904h-2.746v26.102zm30.968-23.537h11.167v-2.572h-25.073v2.573h11.167v40.59h2.745v-40.59zm28.628 15.745v-18.317h-2.746V212.8h2.746v-22.265h26.223V212.8h2.738V169.64h-2.74v18.317h-26.222zm67.774-18.892c-12.19 0-22.38 10.017-22.38 22.16s10.244 22.16 22.38 22.16c12.135 0 22.387-10.017 22.387-22.16s-10.252-22.16-22.387-22.16zm0 2.58c10.705 0 19.64 8.928 19.64 19.58 0 10.585-8.935 19.58-19.64 19.58-10.76 0-19.633-8.935-19.633-19.58 0-10.652 8.874-19.58 19.633-19.58zm46.022 20.723c7.15.113 12.362-3.783 12.362-11.28 0-3.662-1.256-7.097-4.35-9.276-2.92-2.12-6.355-2.172-9.843-2.172h-5.386V212.8h2.747v-20.434h1.377l14.08 20.435h3.155l-14.14-20.434zm-4.47-2.573v-17.575h1.77c2.518 0 5.446-.113 7.73.976 3.088 1.377 4.57 4.578 4.57 7.785 0 2.572-.968 5.152-3.026 6.81-2.18 1.89-4.872 2.003-7.558 2.003h-3.487zm37.66-20.155h-2.746V212.8h2.747V169.64zm28.63 2.573h11.166v-2.572h-25.073v2.573h11.167v40.59h2.747v-40.59zm35.83 22.16v18.438h2.746V194.37l14.368-24.732h-3.034l-12.71 21.873-12.71-21.872h-3.035l14.375 24.733z" fill="#231f20" fill-rule="evenodd"/></svg>