<svg xmlns="http://www.w3.org/2000/svg" width="24" height="24"><g style="text-indent:0;text-align:center;line-height:125%;text-transform:none;block-progression:tb;-inkscape-font-specification:Open Sans Bold" font-size="12" font-weight="bold" text-anchor="middle" color="#000" fill="#444" overflow="visible" enable-background="accumulate" font-family="Open Sans"><path d="M11.825 11.28h.797c.744 0 1.302-.147 1.67-.44.37-.295.556-.725.556-1.287 0-.568-.156-.987-.47-1.258-.306-.27-.79-.406-1.452-.406h-1.1v3.39m5.467-1.813c0 1.228-.386 2.168-1.156 2.82-.766.65-1.857.976-3.273.976h-1.04v4.06h-2.42V5.906h3.647c1.386 0 2.438.3 3.157.898.724.594 1.086 1.482 1.086 2.664" opacity=".3" fill="#fff" stroke="#fff" stroke-width="1.9994999999999998" stroke-linejoin="round" overflow="visible" enable-background="accumulate"/><path d="M11.825 11.28h.797c.744 0 1.302-.147 1.67-.44.37-.295.556-.725.556-1.287 0-.568-.156-.987-.47-1.258-.306-.27-.79-.406-1.452-.406h-1.1v3.39m5.467-1.813c0 1.228-.386 2.168-1.156 2.82-.766.65-1.857.976-3.273.976h-1.04v4.06h-2.42V5.906h3.647c1.386 0 2.438.3 3.157.898.724.594 1.086 1.482 1.086 2.664"/></g><path visibility="hidden" fill="none" d="M0 0h24v24H0z"/></svg>