<svg xmlns="http://www.w3.org/2000/svg" width="99.885" height="100" viewBox="0 0 99.885 100"><path d="M53.41 23.876c3.392.272 6.35-2.347 6.615-5.827.262-3.5-2.25-6.56-5.637-6.833-3.392-.272-6.35 2.327-6.614 5.826s2.263 6.56 5.637 6.833zM48.21 26.475c1.208-.86 2.697-1.446 4.308-1.32 2.113.188 3.857 1.53 4.892 3.185l6.202 12.7 8.454 6.015c.73.566 1.154 1.51 1.094 2.516-.12 1.574-1.46 2.747-3 2.62-.448-.02-.812-.21-1.257-.418l-9.224-6.56c-.284-.25-.508-.524-.69-.86l-2.33-4.758-2.772 12.68 10.9 13.308c.243.42.405.88.507 1.362l2.938 16.076c-.02.355.04.585.02.88-.182 2.367-2.188 4.13-4.48 3.94-1.886-.147-3.305-1.615-3.75-3.396l-2.778-15.068-8.842-10.018-2.067 9.767c-.06.46-.647 1.425-.832 1.822l-8.482 14.796c-.86 1.363-2.27 2.222-3.902 2.097-2.29-.188-4.002-2.263-3.82-4.632.05-.67.324-1.362.558-1.844l7.904-13.707 6.568-30.18-4.298 3.604-2.27 10.753c-.303 1.362-1.52 2.493-2.958 2.368-1.52-.126-2.666-1.487-2.554-3.08l.06-.377 2.716-12.533c.142-.566.446-1.027.85-1.383l12.335-10.352z"/></svg>